<svg xmlns="http://www.w3.org/2000/svg" viewBox="0 0 433.16 159.36"><defs><style>.a{fill:#c6c6c6;}.a,.b{fill-rule:evenodd;}.b{fill:#3c3c3b;}.c{fill:#575756;}.d{fill:#ee7203;}</style></defs><title>softnet</title><path class="a" d="M388.07,105.64l8.66,1.92c-4.68,4.65-5.12,7.16-6.29,10.82,1.68,2,7.11,9.13,8.71,10.27l1.89-.16a27.21,27.21,0,0,1,5.26,0c3.67-.36,7.95-.3,11.68-.39,2.44-.07,4.22.19,5.74-2.26,1.06-1.7.24-1.48.68-2.85a23.68,23.68,0,0,1,1.6-2.9l4.6-8.21c1-1.92,1.42-1,2.64-2.08a3.16,3.16,0,0,0,.71-4.23,15.27,15.27,0,0,1-1-1.67c-.72-1.18-1.52-1.88-2.24-3.19a2.7,2.7,0,0,0-2.87-1.78L426,101.49c1.4-2.58,1.17-2.73.25-4.51-1-.6-7.5.21-9.07.33s-8.66.49-9.37.8l-.86.14-1.42.09c-.41-.26-1.14-.25-3.45,1.29a6.06,6.06,0,0,0-3.05-.15l-8.26-.69c-1.28,1.2-3.19,5.2-2.74,6.85Z" transform="translate(-1.35 -2.04)"/><path class="b" d="M353.27,114.09l2.87-5.53,26.52-11.8,1.38,14.6-11.65,12.08,3.4,6v2.18l-15.59-4.82a9,9,0,0,1-6.45-5.68l-1.5-4.56Zm37.54-15.3,8.26.69a8.07,8.07,0,0,1,3.59.6c.93-.85,1.23-1.08,2-1.69.52,0,.66,0,.95,0a3.75,3.75,0,0,0-.8-1.21L402,99.52c-1.43-1.81-3.38-5.14-5.91-5.31-1.91-.12-5.35,3.35-5.28,4.58ZM401,128.49l-1.89.16c-.34.56.51,1.08,1.05,1.37.32-.16.37-.05.67-.55.53-.9.22-.5.17-1Zm-13-22.85c-1.46,2.83,2.16,6.49,3.81,8.59l-2,3.66.76.69c3.07-5.69,3.11-5.91,6.13-11Zm26.75,13.76,2.62-4.29a.14.14,0,0,0,0-.15l-1.56-2.06a.11.11,0,0,0-.16,0l-2.86,4.44c0,.05-.06.11,0,.16l1.8,1.9s.13.07.16,0Zm11.37-18.12L427.75,99a.11.11,0,0,0,0-.13L426.33,97s-.1-.08-.13,0l-1.76,2.5a.11.11,0,0,0,0,.14l1.62,1.61s.11.08.13,0ZM411.06,117l13-19.87m-13,19.87,13-19.87m-3.82,22.3c-.21.18,0,.8.5,1.39s1.06.91,1.28.73,0-.8-.51-1.38-1.06-.92-1.27-.74Zm3,2.81c-.16-.1-.52.19-.79.65s-.36.9-.2,1,.53-.19.8-.65.36-.9.19-1Zm1.23-2.22c-.16-.1-.52.19-.79.64s-.36.91-.19,1,.52-.19.79-.65.36-.9.19-1Zm1.23-2.23c-.16-.1-.52.19-.79.65s-.36.9-.19,1,.52-.19.79-.64.36-.91.19-1Zm1.24-2.22c-.17-.1-.53.19-.8.64s-.36.91-.19,1,.52-.19.79-.65.36-.9.2-1Zm1.23-2.23c-.17-.1-.52.19-.8.65s-.35.9-.19,1,.52-.19.79-.64.36-.91.2-1Zm1.23-2.22c-.17-.1-.52.19-.79.64s-.36.91-.2,1,.52-.19.8-.65.35-.9.19-1Zm1.23-2.23c-.16-.1-.52.19-.79.65s-.36.9-.2,1,.53-.19.8-.64.36-.91.19-1Zm-9.21,8.49c-.21.18,0,.8.5,1.38s1.06.92,1.28.74,0-.8-.51-1.38-1.06-.92-1.27-.74Zm1.15-2c-.21.18,0,.79.5,1.38s1.06.91,1.28.74,0-.8-.51-1.39-1.06-.91-1.27-.73Zm1.15-2.06c-.21.18,0,.8.5,1.39s1.07.91,1.28.73,0-.79-.51-1.38-1.06-.91-1.27-.74Zm1.15-2c-.21.18,0,.8.5,1.38s1.07.92,1.28.74,0-.8-.51-1.38-1.06-.92-1.27-.74Zm1.15-2c-.21.18,0,.8.5,1.38s1.07.92,1.28.74,0-.8-.51-1.39-1.06-.91-1.27-.73Zm1.15-2c-.21.17,0,.79.5,1.38s1.07.91,1.28.74,0-.8-.51-1.39-1.06-.91-1.27-.73Z" transform="translate(-1.35 -2.04)"/><path class="c" d="M98.23,154.31h.62v7.09h-.62a2,2,0,0,0-.55-1.06,1.53,1.53,0,0,0-1-.31H74.29v-.61a2.1,2.1,0,0,0,1.06-.56,1.54,1.54,0,0,0,.31-1V138.17a1.51,1.51,0,0,0-.3-1,2.3,2.3,0,0,0-1.07-.57V136H96a1.57,1.57,0,0,0,1-.3,2.06,2.06,0,0,0,.57-1.07h.57v7.09h-.57a2.06,2.06,0,0,0-.57-1.07,1.57,1.57,0,0,0-1-.29H81.42v5.28h9a1.61,1.61,0,0,0,1-.3,2.21,2.21,0,0,0,.58-1.07h.58v6.91h-.58a2.18,2.18,0,0,0-.56-1.06,1.59,1.59,0,0,0-1-.3h-9v5.89H96.65a1.53,1.53,0,0,0,1-.29A2.05,2.05,0,0,0,98.23,154.31Zm95.89-17.73a2.48,2.48,0,0,1,1.1.55,1.32,1.32,0,0,1,.3.93,3.81,3.81,0,0,1-.28,1.31l-4.38,11.47-4.37-11.36a4.18,4.18,0,0,1-.37-1.4c0-.71.47-1.2,1.39-1.5V136h-10.7v.62c1,.24,1.45.72,1.45,1.43a4.61,4.61,0,0,1-.41,1.55l-4.5,11.28-4.52-11.36a5.31,5.31,0,0,1-.43-1.55c0-.61.45-1.07,1.33-1.35V136h-9.16v.62a2.59,2.59,0,0,1,1.51.89,10.64,10.64,0,0,1,1.24,2.52l6.37,16.42a4.73,4.73,0,0,1,.39,1.59,1.44,1.44,0,0,1-1.29,1.46V160h9v-.57c-.95-.17-1.42-.66-1.42-1.46a4.43,4.43,0,0,1,.39-1.59L182,143.32l5,13.09a6.31,6.31,0,0,1,.48,1.48c0,.79-.47,1.31-1.38,1.57V160h9.33v-.57c-1-.17-1.46-.68-1.46-1.5a4.5,4.5,0,0,1,.33-1.55L200.77,140a10.07,10.07,0,0,1,1.21-2.44,3.41,3.41,0,0,1,1.54-1V136h-9.4Zm-52.3-.92a1.56,1.56,0,0,1-1,.3h-20a1.55,1.55,0,0,1-1-.31,2.18,2.18,0,0,1-.55-1.06h-.57v7.09h.57a2.06,2.06,0,0,1,.58-1.06,1.56,1.56,0,0,1,1-.3h7.1v17.5a1.54,1.54,0,0,1-.31,1,2.1,2.1,0,0,1-1.06.56V160h8.5v-.61a2.3,2.3,0,0,1-1.07-.59,1.61,1.61,0,0,1-.3-1V140.32h7.1a1.54,1.54,0,0,1,1,.3,2.06,2.06,0,0,1,.58,1.06H143v-7.09h-.57A2.06,2.06,0,0,1,141.82,135.66Zm-98.4-4.28a2.13,2.13,0,0,1,1.07.56,1.52,1.52,0,0,1,.3,1v17.4L28.54,133.51a1.73,1.73,0,0,1-.59-1.14c0-.5.3-.83.91-1v-.7H18.91v.7a2.09,2.09,0,0,1,1.06.56,1.46,1.46,0,0,1,.3,1v24.83a1.49,1.49,0,0,1-.3,1,2.17,2.17,0,0,1-1.06.56v.7h8.58v-.7a2.22,2.22,0,0,1-1.06-.56,1.49,1.49,0,0,1-.3-1V139.93l16.5,17q1,1.08,1,1.5,0,.73-.9.93v.7H52v-.7a2.22,2.22,0,0,1-1.06-.56,1.49,1.49,0,0,1-.3-1V132.93a1.46,1.46,0,0,1,.3-1,2.13,2.13,0,0,1,1.06-.56v-.7H43.42ZM344.5,158.61A25.48,25.48,0,0,1,342,156l-8.9-10.21,8.07-6.52c1.45-1.25,2.35-2,2.71-2.23a3.28,3.28,0,0,1,1.37-.49V136H334.48v.62c.83.13,1.24.43,1.24.85s-.33.87-1,1.4l-9,7.13v-7.81a1.5,1.5,0,0,1,.3-1,2.05,2.05,0,0,1,1.07-.56V136h-8.5v.62a2.3,2.3,0,0,1,1.07.57,1.57,1.57,0,0,1,.3,1v19.65a1.59,1.59,0,0,1-.31,1,2.15,2.15,0,0,1-1.06.56V160H327v-.61a2.3,2.3,0,0,1-1.07-.59,1.55,1.55,0,0,1-.3-1v-6l3.43-2.76,6.65,7.89c.57.65.91,1,1,1.18a.78.78,0,0,1,.14.41c0,.39-.39.67-1.18.86V160h10.51v-.61A4.23,4.23,0,0,1,344.5,158.61Zm-95.16-10.42a11.32,11.32,0,0,1-4.58,9.44,16.91,16.91,0,0,1-19,0,12.39,12.39,0,0,1,0-19.27,15.63,15.63,0,0,1,9.47-2.93,15.29,15.29,0,0,1,9.56,2.93A11.7,11.7,0,0,1,249.34,148.19Zm-5.86-.08a7.72,7.72,0,0,0-2.17-5.72,8.44,8.44,0,0,0-6.09-2.38,8.14,8.14,0,0,0-6.07,2.38,8.3,8.3,0,0,0,0,11.19,8.9,8.9,0,0,0,12.16,0A7.5,7.5,0,0,0,243.48,148.11Zm52.92,10.5a3.6,3.6,0,0,0,1.69.81V160H288v-.61c.74-.2,1.12-.53,1.12-1a3,3,0,0,0-.69-1.43l-4.83-6.89h-5.79v7.68a1.55,1.55,0,0,0,.3,1,2.31,2.31,0,0,0,1.06.59V160h-8.49v-.61a2.15,2.15,0,0,0,1.06-.56,1.59,1.59,0,0,0,.3-1V138.17a1.51,1.51,0,0,0-.3-1,2.31,2.31,0,0,0-1.06-.57V136h15.79a26.35,26.35,0,0,1,4.69.31A8,8,0,0,1,294,137.4c1.74,1.13,2.6,3,2.6,5.53a6.27,6.27,0,0,1-1.6,4.57,10,10,0,0,1-5.18,2.37l4.58,6.35A14.12,14.12,0,0,0,296.4,158.61Zm-7-13.27a2.26,2.26,0,0,0,1.33-2.3,2.31,2.31,0,0,0-.94-2.12,6.49,6.49,0,0,0-3.33-.6h-8.71v5.45h8.71A7.52,7.52,0,0,0,289.41,145.34ZM157.92,45.47a16.9,16.9,0,0,1,1-4.13,8.47,8.47,0,0,1,1.7-2.66,6.5,6.5,0,0,1,2.14-1.45,8.07,8.07,0,0,1,2.89-.46,5.08,5.08,0,0,1,3.7,1.27,10.34,10.34,0,0,1,2.32,4.33h5.14V33a37.2,37.2,0,0,0-7-.57,29.2,29.2,0,0,0-8.12,1,18.3,18.3,0,0,0-6.5,3.51,16.12,16.12,0,0,0-4.6,6,28.23,28.23,0,0,0-2.06,9.18,24.21,24.21,0,0,1-.55,3.72,6.65,6.65,0,0,1-.78,2,3.34,3.34,0,0,1-1,1,5.15,5.15,0,0,1-1.26.54,24.65,24.65,0,0,1-2.62.5v2.64h6.29V94a36,36,0,0,1-.27,5.22,6.71,6.71,0,0,1-.8,2.55,4.25,4.25,0,0,1-1.54,1.46,13.42,13.42,0,0,1-3.26,1.18v2.55H164v-2.55a14.17,14.17,0,0,1-3.4-1.06,4.37,4.37,0,0,1-1.7-1.45,6.75,6.75,0,0,1-1-2.68,29.4,29.4,0,0,1-.34-5.22V62.56H170V57.32h-12.4V51.88A48,48,0,0,1,157.92,45.47ZM127.11,62.9q5.71,6.45,5.71,18.54A33.51,33.51,0,0,1,130,96a19.56,19.56,0,0,1-8.1,8.84,24.94,24.94,0,0,1-12.4,2.94q-10.81,0-16.49-6.36T87.31,82.59a31.84,31.84,0,0,1,3-14.47,19.85,19.85,0,0,1,8.18-8.8,24,24,0,0,1,11.82-2.89C117.69,56.43,123.31,58.59,127.11,62.9ZM123,83a40.45,40.45,0,0,0-1.69-12.65,15.51,15.51,0,0,0-4.59-7.4,10.23,10.23,0,0,0-6.64-2.36A10.65,10.65,0,0,0,100.46,66Q97.1,71.45,97.11,81.5q0,10.71,3.4,16.44a10.76,10.76,0,0,0,9.74,5.72,10.09,10.09,0,0,0,5.92-1.69,12.9,12.9,0,0,0,4-4.53,22.28,22.28,0,0,0,2.19-6.63A43.31,43.31,0,0,0,123,83ZM351.89,98.17a15.09,15.09,0,0,1-3.6,2.46,9.09,9.09,0,0,1-3.88.85,8.07,8.07,0,0,1-3.73-.73,6.73,6.73,0,0,1-2.61-2.41,11.12,11.12,0,0,1-1.56-4.67,64.49,64.49,0,0,1-.4-8V62.56h16.75V57.32H336.11V44.51h-7.37c-.39,3.14-.75,5.54-1.1,7.17a14.7,14.7,0,0,1-1.42,4.11,7.57,7.57,0,0,1-2.51,2.68,11.12,11.12,0,0,1-4.22,1.45v2.64h7.69v28.8c0,5.64,1.1,9.78,3.27,12.44s5.5,4,10,4a15.26,15.26,0,0,0,6.82-1.62,27.68,27.68,0,0,0,7-5.19ZM280.57,81.35v.93A33.23,33.23,0,0,0,282,92.59a12.94,12.94,0,0,0,4.5,6.53,13.26,13.26,0,0,0,8.19,2.36,17.86,17.86,0,0,0,7.65-1.58,22.72,22.72,0,0,0,6.77-5.17l3.17,3.38a45.27,45.27,0,0,1-6.1,5.46,23.41,23.41,0,0,1-6.09,3.08,23,23,0,0,1-7.33,1.12q-10.69,0-16.14-6.42t-5.44-18.91a31.85,31.85,0,0,1,2.76-13.64,21.06,21.06,0,0,1,7.92-9.14,23.86,23.86,0,0,1,20.76-1.56,15.12,15.12,0,0,1,5.9,4.53,21.3,21.3,0,0,1,3.42,7.28,47.74,47.74,0,0,1,1.38,11.44Zm.27-4.32h22.67a39.68,39.68,0,0,0-1.4-9.16,11.34,11.34,0,0,0-3.28-5.43,8.27,8.27,0,0,0-5.7-1.9,10.1,10.1,0,0,0-8.54,4.29C282.47,67.68,281.21,71.75,280.84,77Zm-23.79,24.61a6.84,6.84,0,0,1-.73-2.48c-.12-1.08-.19-2.82-.19-5.19V74.39a39.25,39.25,0,0,0-.55-7.1,16.89,16.89,0,0,0-1.63-4.8,11,11,0,0,0-2.78-3.35,11.19,11.19,0,0,0-3.9-2,17.83,17.83,0,0,0-5-.66,14.16,14.16,0,0,0-5.11.93A21.2,21.2,0,0,0,232.37,60a50.89,50.89,0,0,0-6.2,5.55l-.72-.21.56-8.45h-3.15l-12.15.46v2.74a15,15,0,0,1,3.61,1,3.93,3.93,0,0,1,1.9,1.81,8.35,8.35,0,0,1,.72,3.24c.07,1.34.11,3.13.11,5.35V94.11a30.84,30.84,0,0,1-.34,5.35,7,7,0,0,1-.94,2.55,4.46,4.46,0,0,1-1.45,1.29,15.51,15.51,0,0,1-2.89,1.08v2.55h20.36v-2.55a10.75,10.75,0,0,1-3.83-1.57,4.64,4.64,0,0,1-1.58-2.64A30.7,30.7,0,0,1,226,94V74.61a9.63,9.63,0,0,1,1-4.42,14.32,14.32,0,0,1,3.17-3.89,16.15,16.15,0,0,1,4-2.78,9.54,9.54,0,0,1,3.84-.8,9.92,9.92,0,0,1,3.28.44,7.63,7.63,0,0,1,2.2,1.19,7.82,7.82,0,0,1,1.66,1.82,10.22,10.22,0,0,1,1.2,3A29.23,29.23,0,0,1,247,74q.21,2.94.21,6.59V94.16a31.78,31.78,0,0,1-.34,5.28,7.08,7.08,0,0,1-.94,2.57,4.18,4.18,0,0,1-1.48,1.29,16.14,16.14,0,0,1-2.91,1.08v2.55H262v-2.55a15.2,15.2,0,0,1-3.44-1.25A4.55,4.55,0,0,1,257.05,101.64Zm-55.89-1a9.09,9.09,0,0,1-3.88.85,8.14,8.14,0,0,1-3.74-.73,6.78,6.78,0,0,1-2.6-2.41,11,11,0,0,1-1.56-4.67,62.29,62.29,0,0,1-.41-8V62.56h16.76V57.32H189V44.51H181.6c-.39,3.14-.74,5.54-1.09,7.17a14.7,14.7,0,0,1-1.42,4.11,7.51,7.51,0,0,1-2.52,2.68,11.07,11.07,0,0,1-4.21,1.45v2.64H180v28.8q0,8.46,3.28,12.44c2.18,2.64,5.49,4,10,4a15.29,15.29,0,0,0,6.82-1.62,27.86,27.86,0,0,0,7-5.19l-2.32-2.79A15.09,15.09,0,0,1,201.16,100.63ZM46,55.28C30,51.86,17.54,50.23,17.53,31c.29-1.31-.84.09-2.4,2.75a47.68,47.68,0,0,0-4.4,11C5.89,65.54,27.92,69.23,42.36,75c14.76,5.89,11.36,14.9.14,22.14C32.24,103.75,17,103.57,11.1,94c1.58,16.16,26.26,12.09,36.45,7.51C58,96.86,72.61,88.88,75.7,76.92,79.53,62.11,55.87,57.39,46,55.28Z" transform="translate(-1.35 -2.04)"/><path class="d" d="M396.09,94.21c2.53.17,4.48,3.51,5.92,5.31l2.66-2.27c.33.36.48.57.9,1.09l1.42-.09.34-.8c-.73-.93-2-2.25-2.82-3.1-1.23-.32-3.48.36-4.6-.09-.5-.2-1.58-1.18-2.25-1.56-1.49-.84-5.89,0-7.3.63-1.79.8-3.3,2.18-5.08,2.62-.35.28-.19.3-.46,0-1.5.11-5.78,2.27-7.36,3-.14,1.17-6.81,10.48-8,12.25-.81,1.19-3.56,5-3.69,6.09-.33,2.93,3.86,5.48,3.4,7-1.37-.82-4.17-5-4-6.94.12-1.73,2.49-4.58,3.52-6.11,1.36-2,7.12-11.21,8.47-12a11.07,11.07,0,0,0-3.36,1.38c-.83,2.77-10.28,13.28-10.21,17.08,0,2.67,3.37,5,3,6.46-1.3-.62-3.48-4.56-3.63-6.18-.23-2.44,1.06-3.84,2.29-5.74s6.37-10,7.39-10.89c-.58-.08-.25-.2-1.14.16-.26.11-.89.44-1.15.56,0,2-9.37,10.91-8.94,15.39.34,3.51,2.64,4.51,2.28,5.74-.86-.23-5.13-5-1.24-10.79,1.34-2,5.95-9.14,7.62-10-.62,0,0-.13-.75.11a9.41,9.41,0,0,0-.91.42l-1.63.72c0,.73-5.42,8.09-6.26,9.4-3.52,5.44,1,8.78.76,10.21-1.73-.45-4-6-1.66-10,1.15-1.92,5.14-8.42,6.83-9.25-.56,0,0-.17-.76,0a12.8,12.8,0,0,0-2.63,1.41c-1.53,2.7-4.28,4.94-5.57,8.22a10.17,10.17,0,0,0-.51,4.41c.19,1.68,1.58,3.4,1.68,4.54-.59-.13,0,.39-.73-.39a9.18,9.18,0,0,1-1.61-4c-.68-4.42,3.35-10.35,5.84-12.22-.28-.06-.35-.09-.36-.11a1.08,1.08,0,0,1-.28.08,7.78,7.78,0,0,0-.74.28,7.34,7.34,0,0,0-1.47.81l-1,1.1-.61.93c-6.54,7.53-1.34,12-1.85,13.17-3-1.21-3-10.48,2.26-14.58l-.16-.2c-1.86,1.38-1-.13-3.87,3.43-.46.5-14.51.52-15.62.54H1.35L13,121.29H345v0l7.66,0c.37-.29.2-.29.51.1l.07.25,2,2.46c.77,1.08,1.79,2.1,3.13,1.83-.61-.63-1.18-.93-.91-1.7a3.73,3.73,0,0,1,1.78,2.28,5.29,5.29,0,0,0,2.42.53c-.56-.65-1.77-1.68-1.47-2.47.53.18,2.56,2.42,2.28,2.92l1.68.58.24-.18c-.42-1.06-1.41-1.36-1.4-2.48.81.19.84.54,1.43,1.3s1.24,1.1,1,1.83l2,.57.25-.17c-.45-1.2-2-2-2-3.2.81.17,1.14.9,1.72,1.69.45.6,1.48,1.52,1.24,2.12l.47.16.35.09,1.52.34-3-3.92.08-.56c1.24.24,1.46,1.25,2.21,2.28,2,2.81,2.1,3.43,2.47,2.59.46-1-1.72-2.9-2.34-4.07.66-.75.16-.23.6-.19a21.87,21.87,0,0,1,1.91,2.36l1,1.36c.63.83.49.33.57,1.12a55.4,55.4,0,0,0,7,2.67c.89.23,11.69.24,13.57.19,1.33,0,2.61,0,4,0,2.25,0,2.32-.13,4.18-1.83a25.36,25.36,0,0,0,3.08-3.64,27.21,27.21,0,0,0-5.26,0c0,.48.36.08-.17,1-.3.5-.35.39-.67.55-.54-.29-1.39-.81-1.05-1.37-1.6-1.14-7-8.25-8.71-10.27l-.6-.49,2-3.66c-1.65-2.1-5.27-5.76-3.81-8.59-.45-1.65,1.46-5.65,2.74-6.85C390.74,97.56,394.18,94.09,396.09,94.21ZM376.21,108c-1.09,1.54-2.15,3.09-3.26,4.61-1.4,1.88-1.38,2.44-4,2.26,0-1.12,7.65-11.55,9.27-14,.69-1.05.78-1.67,2.05-1.93,2-.42,1.78-.51,2.43-.14C381.32,101.36,378,105.47,376.21,108ZM267,35.86c-.47-.35-6.26-6.68-6.39-7-.44-.9.52-1.2,1.23-1.87a52.47,52.47,0,0,1,5.79-4c6.63-4,12.22-5.54,19.75-6.87a56.68,56.68,0,0,1,12.69,0c8.29,1.37,12.48,2.67,19.84,6.78,1.48.83,6.86,4.39,7.48,5.67-.64.84-6.12,7-6.55,7.29a30.33,30.33,0,0,1-2.61-2c-14.9-11.24-36.29-10.61-51.23,2Zm1.14,1.94c.16.22,6.62,7.82,7.35,8.09.52-.35,1.15-.94,1.73-1.35,5.16-3.7,9.92-5.6,16.59-5.6l4.39.24c.53.09.79.24,1.41.33,2.78.4,6.63,2.24,9,3.68,1.32.79,2.42,1.86,3.68,2.69l7.13-7.9c-1.51-2.23-8.1-5.84-10.69-6.87a40.42,40.42,0,0,0-29.59-.05c-3.53,1.41-8.52,4.19-11,6.74Zm8.5,10,7.13,8.1c1.29-.29,2.63-1.82,7.35-2.5,1.19-.17,2.12,0,3.26-.12a16.57,16.57,0,0,1,9.5,2.78c.93-1.07,6.85-7.35,7.1-8.26-1-1.34-5.68-3.94-7.19-4.57a25.67,25.67,0,0,0-19.77,0,25.07,25.07,0,0,0-5.68,3.18c-.72.47-1.07,1-1.7,1.39ZM79.29,76.66C80.76,76.1,92.84,59,82.81,46.77c-6.14-7.5-19.41-10.4-28.34-14.12-14.68-6.12-11.55-14.57-.16-22.14C63.47,4.42,81,4,85.72,13.62,84.73,3.44,75.76,2,67.47,2c-17.79.89-42.62,14.17-46.36,28.69C17.29,45.56,40.76,50.17,50.73,52.47c15.79,3.63,28.55,4.46,28.56,24.19Z" transform="translate(-1.35 -2.04)"/></svg>